<?xml version="1.0"?>
<!-- Generator: Adobe Illustrator 15.0.2, SVG Export Plug-In  -->
<!DOCTYPE svg PUBLIC "-//W3C//DTD SVG 1.1//EN" "http://www.w3.org/Graphics/SVG/1.1/DTD/svg11.dtd" [
	<!ENTITY ns_flows "http://ns.adobe.com/Flows/1.0/">
]>
<svg version="1.1"
	 xmlns="http://www.w3.org/2000/svg" xmlns:xlink="http://www.w3.org/1999/xlink" xmlns:a="http://ns.adobe.com/AdobeSVGViewerExtensions/3.0/"
	 x="0px" y="0px" width="24px" height="16px" viewBox="-1.017 -0.941 24 16"
	 overflow="visible" enable-background="new -1.017 -0.941 24 16" xml:space="preserve">
<defs>
</defs>
<path fill="#FFFFFF" d="M4.437,9.368h1.655l-0.564,1.361h1.386l0.564-1.361h4.076l-0.117,0.285
	c-0.271,0.652-0.234,1.492,0.043,1.936l1.578,2.529l1.222-1.772h2.001L17.374,11h-2.535l-0.764,0.941l-1.521-1.266
	c-0.033-0.031-0.072-0.197-0.01-0.35l0.692-1.672c0,0,0.146,0.713,1.07,0.713h5.497c0.262,0,1.057,0,1.361-0.74
	c0.279-0.674-0.137-1.043-0.137-1.043h0.438l0.5-1.206h-2.688c-0.34,0-0.653,0.086-0.901,0.234l1.27-3.064h-1.387l-1.394,3.365
	c0,0-0.248-0.535-1.063-0.535h-1.625L16.818,0h-1.387l-2.64,6.379H9.401c-0.884,0-1.702,0.372-2.278,0.997
	c0,0-0.006-0.997-1.19-0.997H2.916c-1.206,0-2.45,0.72-2.83,1.639c-0.269,0.648,0.109,1.35,0.969,1.35H2.23
	c0.489,0,1.009-0.326,1.233-0.483C3.462,8.883,3.712,9.368,4.437,9.368z"/>
<polygon fill="#CF0A2C" points="14.999,11.336 14.45,12.01 16.122,12.01 16.671,11.336 "/>
<polygon fill="#CF0A2C" points="5.754,4.647 6.233,4.298 6.713,4.647 6.53,4.083 7.01,3.735 6.417,3.735 6.233,3.17 6.05,3.735 
	5.458,3.735 5.938,4.083 "/>
<polygon fill="#CF0A2C" points="8.862,4.647 9.342,4.298 9.822,4.647 9.639,4.083 10.12,3.735 9.526,3.735 9.342,3.17 9.159,3.735 
	8.566,3.735 9.045,4.083 "/>
<polygon fill="#CF0A2C" points="12.634,3.735 12.451,3.17 12.268,3.735 11.675,3.735 12.154,4.083 11.972,4.647 12.451,4.298 
	12.932,4.647 12.749,4.083 13.228,3.735 "/>
<polygon fill="#CF0A2C" points="4.573,5.393 4.574,5.393 4.539,5.953 4.731,5.953 5.271,5.251 5.113,5.251 4.705,5.799 4.703,5.799 
	4.74,5.251 4.542,5.251 4.132,5.799 4.13,5.799 4.171,5.251 4.003,5.251 3.962,5.953 4.152,5.953 "/>
<path fill="#CF0A2C" d="M5.687,5.795l0.016,0.157h0.187l-0.07-0.701H5.623L4.974,5.953h0.169l0.139-0.157L5.687,5.795L5.687,5.795z
	 M5.657,5.375l0.02,0.305H5.385L5.657,5.375z"/>
<path fill="#CF0A2C" d="M6.068,5.733c-0.062,0.15,0.029,0.238,0.231,0.238c0.238,0,0.398-0.086,0.458-0.23
	C6.885,5.432,6.304,5.614,6.38,5.432c0.026-0.063,0.112-0.096,0.177-0.096c0.109,0,0.158,0.033,0.126,0.124H6.84
	c0.055-0.141-0.021-0.227-0.226-0.227c-0.163,0-0.342,0.064-0.409,0.227c-0.117,0.282,0.446,0.144,0.38,0.301
	c-0.019,0.05-0.091,0.106-0.221,0.106c-0.125,0-0.165-0.051-0.139-0.134H6.068z"/>
<polygon fill="#CF0A2C" points="6.989,5.953 7.114,5.652 7.497,5.652 7.372,5.953 7.528,5.953 7.819,5.251 7.663,5.251 7.544,5.537 
	7.163,5.537 7.28,5.251 7.124,5.251 6.833,5.953 "/>
<polygon fill="#CF0A2C" points="7.9,5.953 8.191,5.251 8.033,5.251 7.742,5.953 "/>
<polygon fill="#CF0A2C" points="8.257,5.953 8.484,5.405 8.486,5.405 8.667,5.953 8.878,5.953 9.169,5.251 9.027,5.251 8.804,5.789 
	8.802,5.789 8.628,5.251 8.406,5.251 8.116,5.953 "/>
<path fill="#CF0A2C" d="M10.045,5.477c0.068-0.164-0.057-0.244-0.269-0.244C9.5,5.233,9.287,5.39,9.199,5.6
	C9.094,5.854,9.224,5.971,9.485,5.971c0.102,0,0.264-0.02,0.381-0.062l0.136-0.327H9.625L9.58,5.69h0.225L9.75,5.824
	C9.662,5.848,9.604,5.856,9.543,5.856c-0.215,0-0.233-0.127-0.179-0.257c0.075-0.183,0.244-0.258,0.391-0.258
	c0.078,0,0.163,0.038,0.127,0.136H10.045z"/>
<polygon fill="#CF0A2C" points="10.238,5.953 10.396,5.953 10.639,5.366 10.907,5.366 10.955,5.251 10.262,5.251 10.214,5.366 
	10.482,5.366 "/>
<path fill="#CF0A2C" d="M11.155,5.971c0.259,0,0.461-0.123,0.562-0.37c0.102-0.245,0.002-0.368-0.256-0.368
	c-0.259,0-0.461,0.123-0.562,0.368C10.797,5.848,10.897,5.971,11.155,5.971z M11.062,5.601c0.068-0.165,0.2-0.254,0.352-0.254
	c0.152,0,0.208,0.089,0.139,0.254c-0.067,0.166-0.197,0.255-0.35,0.255C11.051,5.856,10.995,5.767,11.062,5.601z"/>
<polygon fill="#CF0A2C" points="12.436,5.789 12.434,5.789 12.259,5.251 12.038,5.251 11.747,5.953 11.888,5.953 12.116,5.405 
	12.117,5.405 12.298,5.953 12.509,5.953 12.8,5.251 12.658,5.251 "/>
<path fill="#041E41" d="M2.719,7.25h0.877l0.222-0.537H2.916c-1.065,0-2.193,0.642-2.521,1.432c-0.198,0.479,0.093,0.887,0.66,0.887
	H2.23c0.511,0,1.133-0.49,1.133-0.49l-0.55-0.232c0,0-0.249,0.188-0.52,0.188H1.167c-0.141,0-0.199-0.137-0.125-0.315
	C1.255,7.667,2.006,7.25,2.719,7.25z"/>
<path fill="#041E41" d="M4.437,9.032h0.681c0.245,0,0.454-0.141,0.454-0.141L5.513,9.032h0.663l0.542-1.309
	c0.231-0.558-0.121-1.01-0.786-1.01H4.21L3.987,7.25h1.866c0.398,0,0.277,0.293,0.277,0.293H4.787c-0.534,0-0.927,0.245-1.053,0.549
	C3.519,8.612,3.833,9.032,4.437,9.032z"/>
<path fill="#041E41" d="M13.858,6.713L13.636,7.25h2.088c0.398,0,0.277,0.293,0.277,0.293h-1.345c-0.532,0-0.928,0.245-1.053,0.549
	c-0.216,0.52,0.099,0.939,0.702,0.939h0.682c0.244,0,0.454-0.142,0.454-0.142l-0.058,0.142h0.662l0.543-1.309
	c0.229-0.558-0.121-1.01-0.785-1.01H13.858z"/>
<polygon fill="#041E41" points="17.015,9.032 19.146,3.884 18.483,3.884 16.352,9.032 "/>
<polygon fill="#041E41" points="11.98,6.713 11.317,6.713 11.094,7.25 11.757,7.25 "/>
<polygon fill="#041E41" points="11.02,9.032 11.636,7.543 10.974,7.543 10.356,9.032 "/>
<path fill="#041E41" d="M18.227,7.247c-0.204,0.494,0.062,0.895,0.594,0.895h1.347c0.098,0,0.144,0.08,0.104,0.178
	c-0.041,0.099-0.153,0.179-0.251,0.179h-2.46l-0.223,0.535h2.467c0.461,0,0.877-0.104,1.055-0.533
	c0.204-0.493-0.062-0.895-0.596-0.895h-1.344c-0.099,0-0.146-0.08-0.104-0.178c0.04-0.098,0.151-0.177,0.25-0.177h2.181l0.223-0.537
	h-2.188C18.82,6.713,18.365,6.911,18.227,7.247z"/>
<path fill="#041E41" d="M6.691,10.393l0.77-1.857c0.293-0.709,0.941-1.285,1.965-1.285h0.657L9.667,8.254
	c-0.055,0.134-0.208,0.242-0.34,0.242H7.795L7.573,9.032h1.833c0.331,0,0.664-0.149,0.851-0.602l0.712-1.717H9.401
	c-1.229,0-2.166,0.766-2.557,1.711l-0.815,1.969H6.691z"/>
<path fill="#041E41" d="M11.745,9.78c-0.219,0.531-0.211,1.264,0.018,1.633l1.31,2.097l0.861-1.25l-1.593-1.324
	c-0.168-0.14-0.217-0.472-0.105-0.733l4.085-9.866h-0.663l-2.641,6.379H12.23l-0.224,0.537h0.787L11.745,9.78z"/>
<path fill="#041E41" d="M21.247,9.25c0,0.121,0.1,0.221,0.221,0.221s0.22-0.1,0.22-0.221s-0.099-0.219-0.22-0.219
	S21.247,9.129,21.247,9.25z M21.466,9.079c0.097,0,0.174,0.078,0.174,0.174s-0.077,0.172-0.174,0.172
	c-0.094,0-0.172-0.076-0.172-0.172S21.372,9.079,21.466,9.079z"/>
<path fill="#041E41" d="M21.423,9.275h0.035l0.047,0.103h0.053l-0.051-0.106c0.028-0.01,0.051-0.037,0.051-0.069
	c0-0.041-0.033-0.074-0.075-0.074h-0.104v0.25h0.047V9.275H21.423z M21.423,9.173h0.06c0.017,0,0.026,0.012,0.026,0.026
	c0,0.016-0.012,0.027-0.026,0.027h-0.06V9.173z"/>
<path fill="#FFFFFF" d="M4.609,8.081c-0.115,0-0.247,0.092-0.294,0.207C4.268,8.403,4.321,8.497,4.438,8.497h1.011
	c0.145,0,0.331-0.104,0.384-0.233l0.109-0.265c0,0-0.189,0.082-0.402,0.082H4.609z"/>
<path fill="#FFFFFF" d="M14.479,8.081c-0.114,0-0.246,0.092-0.294,0.207c-0.048,0.114,0.007,0.209,0.122,0.209h1.011
	c0.146,0,0.331-0.105,0.386-0.234l0.107-0.264c0,0-0.189,0.082-0.401,0.082H14.479z"/>
</svg>
